<?xml version="1.0" encoding="utf-8"?>
<!-- Generator: Adobe Illustrator 16.0.0, SVG Export Plug-In . SVG Version: 6.00 Build 0)  -->
<!DOCTYPE svg PUBLIC "-//W3C//DTD SVG 1.1//EN" "http://www.w3.org/Graphics/SVG/1.1/DTD/svg11.dtd">
<svg version="1.1" id="圖層_1" xmlns="http://www.w3.org/2000/svg" xmlns:xlink="http://www.w3.org/1999/xlink" x="0px" y="0px"
	 width="100px" height="100px" viewBox="0 0 100 100" enable-background="new 0 0 100 100" xml:space="preserve">
<rect x="-166.167" y="52.244" fill="none" width="37.5" height="29.166"/>
<rect x="-212" y="14.744" fill="none" width="37.5" height="66.666"/>
<rect x="-166.167" y="14.744" fill="none" width="37.5" height="29.166"/>
<path d="M0-0.001v100.002h100V-0.001H0z M86.674,7.839c2.576,0,4.66,2.088,4.66,4.661s-2.084,4.66-4.66,4.66
	s-4.662-2.087-4.662-4.66S84.098,7.839,86.674,7.839z M72.691,7.839c2.572,0,4.66,2.088,4.66,4.661s-2.088,4.66-4.66,4.66
	c-2.574,0-4.662-2.087-4.662-4.66S70.117,7.839,72.691,7.839z M45.834,91.667h-37.5V25.001h37.5V91.667z M58.709,7.839
	c2.572,0,4.66,2.088,4.66,4.661s-2.088,4.66-4.66,4.66c-2.574,0-4.66-2.087-4.66-4.66S56.135,7.839,58.709,7.839z M91.668,91.667
	H54.166V62.501h37.502V91.667z M91.668,54.167H54.166V25.001h37.502V54.167z"/>
</svg>
