<?xml version="1.0" encoding="utf-8"?>
<!-- Generator: Adobe Illustrator 21.1.0, SVG Export Plug-In . SVG Version: 6.00 Build 0)  -->
<svg version="1.1" id="圖層_1" xmlns="http://www.w3.org/2000/svg" xmlns:xlink="http://www.w3.org/1999/xlink" x="0px" y="0px"
	 viewBox="0 0 150 60" enable-background="new 0 0 150 60" xml:space="preserve">
<g>
	<g>
		<g>
			<path fill="#009FB7" d="M108,16.3c-2.3-3.8-7.1-9.6-18.4-9.3C76.4,7.4,69.1,20,69.1,29.5c0,9.6,3.4,15.5,9,19.5
				c6.2,4.4,15.3,4.7,19.8,3.1c3.1-1,4.9-2.2,2.4-2.9c0,0-1.7,0.8-5.9,1.3c-5.8,0.8-13.5-2-16-4.5c-11.2-10.7-6-23.7-2.9-28.4
				c2.7-4.2,8.2-7.8,14.6-8c8.1-0.1,12.9,3.8,15.6,7.7c3.1,4.6,4.3,13.5,1.4,19.1c-2.4,4.8-5.3,8.2-13.1,7.4
				c-4.7-0.6-3.6-7.2-3.4-8.2l8.1-0.2c2,0,3.2-1.2,3.5-3.5l1.5-9.8c0.4-2.2-0.5-3.3-2.5-3.3l-8.3,0.2l0.7-4.7
				c0.1-0.9-0.2-1.3-1.1-1.3c-0.8,0-1.2,0.5-1.4,1.4l-0.7,4.7l-8.3,0.2c-1.9,0-3.1,1.2-3.4,3.4l-1.5,9.8c-0.4,2.3,0.4,3.4,2.4,3.3
				l8.2-0.2l0.1,0l-0.3,2.1c-0.1,1.8,0.1,4.4,1.4,6.2c0.4,0.5,0.9,1,1.6,1.4c4.4,2.4,13.4,1.6,17.1-4.5
				C113.8,30.4,110,19.6,108,16.3z M92.4,21.8l7.7-0.2c0.8,0,1.1,0.4,0.9,1.3l-1.3,8.5c-0.1,0.9-0.6,1.4-1.4,1.4L90.7,33L92.4,21.8z
				 M80.5,33.2c-0.7,0-1-0.4-0.8-1.4l1.3-8.5c0.1-0.9,0.6-1.4,1.2-1.4l7.7-0.2l-1.7,11.2L80.5,33.2z"/>
		</g>
	</g>
	<g>
		<path fill="#FFA94C" d="M12.4,17.5c0.4,0,0.7,0.1,1,0.3c0.3,0.2,0.4,0.5,0.4,0.8c0,0.2,0,0.4-0.1,0.6c-0.9,2.1-1.9,4-3.1,5.6
			c0.5,0.4,1,1,1.6,1.6c0.8-1.3,1.5-2.7,2.2-4.1c0.2-0.3,0.5-0.4,1-0.4c0.3,0,0.5,0.1,0.7,0.4c0.2,0.2,0.3,0.5,0.3,0.8
			c0,0.3-0.1,0.6-0.2,0.9c-0.8,1.8-1.8,3.4-2.8,5c-0.5,0.8-1,1.5-1.6,2.3c1-0.2,2-0.3,2.9-0.6c0-0.2-0.1-0.3-0.1-0.4
			c-0.1-0.3-0.1-0.5-0.1-0.6c0-0.5,0.4-0.8,1.1-0.8c0.3,0,0.6,0.1,0.8,0.4c0.5,1.1,0.9,2.4,1.2,3.8c0.1,0.3,0.1,0.7,0.1,0.9
			c0,0.7-0.4,1-1.3,1c-0.4,0-0.6-0.3-0.8-0.9c-0.1-0.5-0.2-0.9-0.3-1.3c-0.1,0-0.1,0-0.2,0c-0.4,0.1-0.8,0.2-1.2,0.3v13.3
			c0,0.9-0.4,1.3-1.2,1.3c-0.8,0-1.2-0.4-1.2-1.3V33.8c-1.2,0.2-2.4,0.4-3.6,0.5c-0.7,0-1.1-0.5-1.1-1.5c0-0.8,0.4-1.2,1.1-1.2
			c0.3,0,0.5,0,0.8,0c0.9-1,1.6-2,2.3-3c-0.1,0-0.2-0.1-0.2-0.1c-0.8-0.9-1.4-1.5-1.9-2C8.4,26,8,25.6,7.4,25.2
			C7.2,24.9,7,24.6,7,24.3c0-0.8,0.4-1.2,1.1-1.2c0.2,0,0.4,0.1,0.7,0.2c0.9-1.4,1.8-3.1,2.7-5.2C11.6,17.7,12,17.5,12.4,17.5z
			 M9,35.8c0.8,0,1.2,0.4,1.2,1.1c0,0.2,0,0.5-0.1,0.9c-0.2,3.1-0.5,6-0.8,8.7C9,46.8,8.6,47,8.1,47C7.4,47,7,46.7,7,46
			c0-0.3,0-0.5,0.1-0.8c0.4-2.7,0.6-5.6,0.9-8.7C8,36,8.4,35.8,9,35.8z M15.7,36c0.4,0,0.8,0.2,1,0.7c0.2,1.1,0.5,2.8,0.7,5.2
			c0.1,0.5,0.1,0.8,0.1,1c0,0.7-0.4,1.1-1.1,1.1c-0.6,0-0.9-0.4-0.9-1.1c-0.2-2.1-0.4-4-0.7-5.5L14.7,37C14.7,36.3,15.1,36,15.7,36z
			 M20.7,18.2h11.5c1.6,0,2.4,0.9,2.4,2.6v24.5c0,2-1,2.9-3.1,2.9c-1,0-2.1-0.2-3.4-0.5c-0.5-0.2-0.7-0.6-0.7-1
			c0-0.9,0.3-1.4,0.8-1.4c0.2,0,0.4,0,0.7,0.1c1,0.3,1.7,0.4,2.3,0.4c0.7,0,1.1-0.5,1.1-1.4V33.9h-7.4v5.4c0,0.8,0.3,1.2,1,1.2H30
			c0.7,0,1.1,0.4,1.1,1.1c0,0.9-0.4,1.3-1.1,1.3h-5c-1.5,0-2.3-0.9-2.3-2.6v-6.5h-2.1v13c0,0.8-0.4,1.2-1.2,1.2
			c-0.7,0-1.1-0.4-1.1-1.2V20.8C18.2,19.1,19.1,18.2,20.7,18.2z M20.5,26.8h6.4c0.2-0.4,0.3-0.8,0.5-1.2c0.4-1,0.8-2.1,1.1-3.2
			c0.2-0.3,0.5-0.5,1-0.5c0.3,0,0.6,0.1,0.8,0.4c0.2,0.3,0.4,0.6,0.4,0.9c0,0.3-0.1,0.5-0.2,0.8c-0.3,0.8-0.6,1.5-1,2.3
			c-0.1,0.2-0.2,0.4-0.3,0.5h3.2v-5.2c0-0.7-0.3-1.1-0.8-1.1H21.2c-0.5,0-0.7,0.4-0.7,1.1L20.5,26.8L20.5,26.8z M20.5,31.5h4.3v-2.5
			h-4.3V31.5z M23.5,21.7c0.3,0,0.7,0.2,1,0.5c0.3,0.6,0.6,1.2,0.8,2c0.1,0.4,0.1,0.8,0.1,1.2c0,0.7-0.5,1-1.4,1
			c-0.4,0-0.7-0.3-1-0.9c-0.2-0.9-0.4-1.6-0.6-2.1c-0.1-0.3-0.1-0.5-0.1-0.7C22.3,22,22.7,21.7,23.5,21.7z M27.2,31.5h5.2v-2.5h-5.2
			V31.5z"/>
		<path fill="#FFA94C" d="M40.1,18.4h5.7c1.4,0,2.1,0.7,2.1,2v6.4c0,1.4-0.7,2.2-2.1,2.2h-1.2V34h2.7c0.8,0,1.2,0.4,1.2,1.3
			c0,0.9-0.4,1.3-1.2,1.3h-2.7V43c1-0.3,1.8-0.5,2.5-0.8c0.2-0.1,0.4-0.1,0.6-0.1c0.8,0,1.2,0.4,1.2,1.2c0,0.7-0.3,1.2-0.9,1.4
			c-1.2,0.6-2.7,1.1-4.6,1.6c-1.4,0.4-3.2,0.8-5.3,1.1c-0.7,0-1-0.5-1-1.4c0-0.9,0.3-1.4,1-1.6c0.1,0,0.3,0,0.4,0V33.5
			c0-0.8,0.4-1.2,1.1-1.2c0.8,0,1.2,0.4,1.2,1.2v10.4c0.6-0.1,1.1-0.2,1.6-0.3V28.9h-2.3c-1.4,0-2.1-0.7-2.1-2.2v-6.4
			C38.1,19,38.8,18.4,40.1,18.4z M44.8,26.5c0.5,0,0.7-0.3,0.7-0.9v-4c0-0.5-0.2-0.8-0.7-0.8h-3.6c-0.5,0-0.7,0.3-0.7,0.8v4
			c0,0.6,0.2,0.9,0.7,0.9H44.8z M62.4,18.2c1.3,0,1.9,0.6,1.9,1.8c0,1-0.4,2.4-1.3,4c-0.8,1.5-2.1,3.1-3.9,4.7
			c0.4,0.3,0.8,0.6,1.3,0.8c1.2,0.7,2.8,1.4,4.9,2.1c0.4,0.4,0.6,0.8,0.6,1.2c0,0.9-0.4,1.4-1.3,1.4c-0.3,0-0.6-0.1-1.1-0.3
			c-1.9-0.7-3.4-1.5-4.7-2.4c-0.6-0.3-1.2-0.7-1.8-1.2c-1.7,1.2-3.8,2.5-6.4,3.8c-0.6,0.1-1,0.2-1.3,0.2c-0.6,0-1-0.4-1-1.2
			c0-0.4,0.2-0.8,0.7-1.1c2.4-1.1,4.4-2.2,6.1-3.3c-0.3-0.2-0.5-0.5-0.7-0.7c-0.8-1.1-1.6-2.5-2.3-4.3c-0.6,0.9-1.2,1.8-1.9,2.5
			c-0.2,0.2-0.4,0.3-0.7,0.3c-0.8,0-1.2-0.4-1.2-1.3c0-0.3,0.2-0.6,0.5-0.9c0.7-0.7,1.2-1.3,1.6-1.9c0.5-0.7,1-1.7,1.4-2.9
			c0.3-0.9,0.9-1.3,2-1.3L62.4,18.2L62.4,18.2z M52.6,34.6h9.3c1.6,0,2.4,0.9,2.4,2.6v7.4c0,1.7-0.8,2.6-2.4,2.6h-9.3
			c-1.6,0-2.4-0.8-2.4-2.6v-7.4C50.2,35.5,51,34.6,52.6,34.6z M60.9,44.6c0.7,0,1-0.3,1-1v-5.3c0-0.7-0.3-1.1-1-1.1h-7.4
			c-0.6,0-0.9,0.4-0.9,1.1v5.3c0,0.7,0.3,1,0.9,1H60.9z M53.5,21.1c0.2,0.2,0.3,0.4,0.4,0.7c0.8,1.9,1.7,3.4,2.7,4.6
			c0.2,0.3,0.5,0.5,0.7,0.8c0.9-0.7,1.6-1.4,2.2-2c1.6-1.9,2.5-3.4,2.5-4.3c0-0.2-0.2-0.3-0.6-0.3h-6.9C54,20.7,53.7,20.8,53.5,21.1
			z"/>
		<path fill="#FFA94C" d="M128.8,17.3c0.9,0,1.3,0.5,1.3,1.4v2.8h11.7c0.8,0,1.2,0.4,1.2,1.3c0,0.9-0.4,1.4-1.2,1.4h-3.4
			c0,0.2-0.1,0.3-0.1,0.5c-1.1,3.5-2.3,6.4-3.6,8.7c-1.2,1.9-2.4,3.6-3.8,5.1c1.3,1.1,2.9,2.1,4.8,3c1.6,1,3.8,2,6.4,3
			c0.7,0.3,1,0.7,1,1.3c0,1-0.4,1.6-1.3,1.6c-0.2,0-0.5-0.1-0.9-0.2c-3.2-1.4-5.8-2.7-7.8-3.9c-1.5-0.9-2.9-1.9-4.2-2.8
			c-1.2,1-2.5,2-4,3c-2.1,1.4-4.9,2.7-8.2,4c-0.3,0.1-0.7,0.1-1,0.1c-0.3,0-0.6-0.1-0.9-0.4c-0.2-0.3-0.3-0.5-0.3-0.9
			c0-0.6,0.2-1,0.7-1.2c3.3-1.2,5.9-2.4,8-3.8c1.3-0.9,2.5-1.8,3.6-2.7c-1.6-1.5-3-3.4-4.3-5.8c-1.5-2.6-2.6-5.5-3.4-8.5H116
			c-0.8,0-1.2-0.5-1.2-1.4c0-0.9,0.4-1.3,1.2-1.3h11.5v-2.8C127.5,17.8,127.9,17.3,128.8,17.3z M121.8,24.3c1.1,3.2,2.2,5.8,3.4,7.8
			c1,1.7,2.3,3.3,3.7,4.7c1.4-1.5,2.6-3.1,3.8-5c1.2-2,2.3-4.5,3.3-7.5H121.8z"/>
	</g>
</g>
</svg>
