<?xml version="1.0" encoding="utf-8"?>
<!-- Generator: Adobe Illustrator 16.0.0, SVG Export Plug-In . SVG Version: 6.00 Build 0)  -->
<!DOCTYPE svg PUBLIC "-//W3C//DTD SVG 1.1//EN" "http://www.w3.org/Graphics/SVG/1.1/DTD/svg11.dtd">
<svg version="1.1" id="圖層_1" xmlns="http://www.w3.org/2000/svg" xmlns:xlink="http://www.w3.org/1999/xlink" x="0px" y="0px"
	 width="100px" height="100px" viewBox="-38 -38 100 100" enable-background="new -38 -38 100 100" xml:space="preserve">
<rect x="-166.167" y="52.244" fill="none" width="37.5" height="29.166"/>
<rect x="-212" y="14.744" fill="none" width="37.5" height="66.666"/>
<rect x="-166.167" y="14.744" fill="none" width="37.5" height="29.166"/>
<path d="M-38-38.001V62.001H62V-38.001H-38z M48.674-30.161c2.576,0,4.66,2.088,4.66,4.661s-2.084,4.66-4.66,4.66
	s-4.662-2.087-4.662-4.66S46.098-30.161,48.674-30.161z M34.691-30.161c2.572,0,4.66,2.088,4.66,4.661s-2.088,4.66-4.66,4.66
	c-2.574,0-4.662-2.087-4.662-4.66S32.117-30.161,34.691-30.161z M7.833,53.667h-37.5v-66.666h37.5V53.667z M20.709-30.161
	c2.572,0,4.66,2.088,4.66,4.661s-2.088,4.66-4.66,4.66c-2.574,0-4.66-2.087-4.66-4.66S18.135-30.161,20.709-30.161z M53.668,53.667
	H16.166V24.501h37.502V53.667z M53.668,16.167H16.166v-29.166h37.502V16.167z"/>
</svg>
