<?xml version="1.0" encoding="utf-8"?>
<!-- Generator: Adobe Illustrator 16.0.0, SVG Export Plug-In . SVG Version: 6.00 Build 0)  -->
<!DOCTYPE svg PUBLIC "-//W3C//DTD SVG 1.1//EN" "http://www.w3.org/Graphics/SVG/1.1/DTD/svg11.dtd">
<svg version="1.1" id="圖層_1" xmlns="http://www.w3.org/2000/svg" xmlns:xlink="http://www.w3.org/1999/xlink" x="0px" y="0px"
	 width="100px" height="100px" viewBox="-38 -38 100 100" enable-background="new -38 -38 100 100" xml:space="preserve">
<g>
	<path fill="none" d="M29.924-3.358h7.727c1.064,0,1.932-0.866,1.932-1.932c0-1.066-0.867-1.931-1.932-1.931h-7.727
		c-1.064,0-1.934,0.865-1.934,1.931C27.99-4.224,28.859-3.358,29.924-3.358z"/>
	<path fill="none" d="M33.785,39.142c-2.135,0-3.861,1.734-3.861,3.865s1.727,3.863,3.861,3.863c2.137,0,3.861-1.732,3.861-3.863
		S35.922,39.142,33.785,39.142z"/>
	<polygon points="-18.682,54.62 12.226,54.62 12.226,43.03 -8.64,43.03 	"/>
	<polygon points="-30.273,-22.653 35.408,-22.653 35.408,-14.925 43.135,-14.925 43.135,-30.38 -38,-30.38 -38,35.304 
		12.226,35.304 12.226,27.575 -30.273,27.575 	"/>
	<path d="M60.662,19.325c-1.371-1.928-2.613-3.203-4.627-3.203c-0.525,0-0.924,0.08-1.691,0.223l1.246,1.748
		c0.313,0.436,0.209,1.047-0.227,1.363c-0.443,0.313-1.049,0.209-1.363-0.229l-1.113-1.559c-0.322-0.453-0.844-0.717-1.387-0.717
		c-0.203,0-0.176-0.016-2.889,0.607l1.512,2.125c0.311,0.438,0.215,1.043-0.225,1.361c-0.439,0.311-1.045,0.213-1.361-0.232
		l-1.314-1.838c-0.322-0.453-0.844-0.711-1.379-0.711c-0.246,0-0.199-0.016-2.986,0.691l1.604,2.242
		c0.313,0.439,0.207,1.049-0.229,1.363s-1.049,0.211-1.359-0.229l-6.498-9.092c-0.854-1.203-2.523-1.478-3.725-0.623
		c-1.199,0.852-1.48,2.523-0.623,3.723l9.594,13.447c-2.57-0.953-6.553-1.367-7.293,1.303c-0.439,1.588,0.834,2.852,2.811,3.516
		c2.068,0.691,8.477,2.467,15.9,8L62,36.22V21.521C61.635,20.815,61.207,20.089,60.662,19.325z"/>
	<path d="M36.398,36.804c-1.111-0.373-2.033-0.896-2.752-1.525H20.264V0.413h27.045v15.066l0.783-0.18
		c1.139-0.262,1.834-0.422,2.293-0.518l-0.041-0.055l0.828-0.152V-6.448c0-1.23-0.486-2.408-1.357-3.281
		c-0.871-0.869-2.049-1.356-3.277-1.356h-25.5c-1.229,0-2.406,0.487-3.277,1.356C16.887-8.856,16.4-7.679,16.4-6.448v52.545
		c0,1.23,0.486,2.406,1.359,3.277c0.871,0.873,2.049,1.359,3.277,1.359h25.5c1.229,0,2.406-0.486,3.277-1.359
		c0.871-0.871,1.357-2.047,1.357-3.277v-1.979c-6.289-4.572-11.764-6.344-14.135-7.105C36.797,36.933,36.584,36.866,36.398,36.804z
		 M29.924-7.222h7.727c1.064,0,1.932,0.865,1.932,1.931c0,1.066-0.867,1.932-1.932,1.932h-7.727c-1.064,0-1.934-0.866-1.934-1.932
		C27.99-6.356,28.859-7.222,29.924-7.222z M33.785,46.87c-2.135,0-3.861-1.732-3.861-3.863s1.727-3.865,3.861-3.865
		c2.137,0,3.861,1.734,3.861,3.865S35.922,46.87,33.785,46.87z"/>
</g>
</svg>
