<svg xmlns="http://www.w3.org/2000/svg" xmlns:xlink="http://www.w3.org/1999/xlink" width="30" height="30" viewBox="0 0 30 30">
    <defs>
        <path id="a" d="M16.414 12.214c1.415-.771 2.315-1.928 2.057-4.114-.257-2.829-2.7-3.857-5.914-4.114V0h-2.443v3.857H8.186V0H5.743v3.986H.857v2.571h1.8c1.029 0 1.286.514 1.414 1.029v4.5h.258-.258v6.3c0 .257-.257.771-.9.771h-1.8l-.514 2.829h4.886v3.985h2.443v-3.985h1.928v3.985h2.443v-3.985c4.114-.257 6.943-1.286 7.329-5.143.257-2.7-1.157-3.986-3.472-4.629zm-8.228-5.4c1.414 0 5.657-.385 5.657 2.443 0 2.7-4.243 2.443-5.657 2.443V6.814zm0 12.6v-5.271c1.671 0 6.814-.514 6.814 2.7 0 2.957-5.143 2.571-6.814 2.571z"/>
    </defs>
    <use fill="#00B3CB" fill-rule="nonzero" transform="translate(5 2)" xlink:href="#a"/>
</svg>
