<svg xmlns="http://www.w3.org/2000/svg" xmlns:xlink="http://www.w3.org/1999/xlink" width="31" height="30" viewBox="0 0 31 30">
    <defs>
        <path id="a" d="M13.757 14.657l-6.171 3.6-6.172-3.6c-.128-.128-.257-.128-.385-.128-.386 0-.643.385-.515.771 0 0 0 .129.129.129l6.428 9c.258.385.9.385 1.029 0l6.557-9c.386-.515-.386-1.158-.9-.772zm1.414-2.443c0-.128 0-.257-.128-.385L8.1.386C7.971.129 7.714 0 7.586 0c-.257 0-.515.129-.515.386L.13 11.829C0 11.957 0 12.086 0 12.214c0 .257.129.515.386.643L7.2 16.843a.82.82 0 0 0 .771 0l6.815-3.986a.277.277 0 0 0 .257-.257c.128-.129.128-.129.128-.386 0 .129 0 .129 0 0 0 .129 0 .129 0 0 0 .129 0 .129 0 0z"/>
    </defs>
    <use fill="#00B6CD" fill-rule="nonzero" transform="translate(7.333 3)" xlink:href="#a"/>
</svg>
