<?xml version="1.0" encoding="utf-8"?>
<!-- Generator: Adobe Illustrator 22.0.1, SVG Export Plug-In . SVG Version: 6.00 Build 0)  -->
<svg version="1.1" id="圖層_1" xmlns="http://www.w3.org/2000/svg" xmlns:xlink="http://www.w3.org/1999/xlink" x="0px" y="0px"
	 viewBox="0 0 25 25" style="enable-background:new 0 0 25 25;" xml:space="preserve">
<style type="text/css">
	.st0{fill:url(#Combined-Shape_1_);}
</style>
<title>Combined Shape</title>
<desc>Created with Sketch.</desc>
<g id="Symbol">
	<g id="Icons_x2F_Elements_x2F_Mail" transform="translate(-1.000000, -3.000000)">
		
			<linearGradient id="Combined-Shape_1_" gradientUnits="userSpaceOnUse" x1="-165.6821" y1="159.8328" x2="-164.6229" y2="160.8703" gradientTransform="matrix(18 0 0 -14 2983.5 2262.5)">
			<stop  offset="0" style="stop-color:#F6931D"/>
			<stop  offset="1" style="stop-color:#ED1C23"/>
		</linearGradient>
		<path id="Combined-Shape" class="st0" d="M6.2,12.8c-0.4-0.3-0.8-0.7-1.2-1.1c-0.4-0.5-0.6-0.9-0.6-1.4c0-0.5,0.1-0.9,0.4-1.3
			c0.3-0.3,0.7-0.5,1.2-0.5h14.8c0.4,0,0.8,0.2,1.1,0.5c0.3,0.3,0.5,0.7,0.5,1.1c0,0.5-0.2,1-0.5,1.5c-0.3,0.5-0.7,0.9-1.2,1.2
			c-2.5,1.7-4.1,2.8-4.7,3.2c-0.1,0-0.2,0.1-0.4,0.3c-0.2,0.2-0.4,0.3-0.5,0.4c-0.1,0.1-0.3,0.2-0.5,0.3c-0.2,0.1-0.4,0.2-0.6,0.3
			c-0.2,0.1-0.3,0.1-0.5,0.1h0h0c-0.2,0-0.3,0-0.5-0.1c-0.2-0.1-0.4-0.1-0.6-0.3c-0.2-0.1-0.4-0.2-0.5-0.3c-0.1-0.1-0.3-0.2-0.5-0.4
			c-0.2-0.2-0.4-0.3-0.4-0.3c-0.6-0.4-1.5-1-2.6-1.8C7.1,13.4,6.5,13,6.2,12.8z M21.5,13.9c0.4-0.3,0.7-0.5,1-0.9v7.9
			c0,0.4-0.2,0.8-0.5,1.1c-0.3,0.3-0.7,0.5-1.1,0.5H6.1c-0.4,0-0.8-0.2-1.1-0.5c-0.3-0.3-0.5-0.7-0.5-1.1V13c0.3,0.3,0.6,0.6,1,0.9
			c2.4,1.6,4.1,2.8,5,3.4c0.4,0.3,0.7,0.5,0.9,0.7c0.2,0.2,0.6,0.3,0.9,0.5c0.4,0.2,0.8,0.2,1.1,0.2h0h0c0.3,0,0.7-0.1,1.1-0.2
			c0.4-0.2,0.7-0.3,0.9-0.5c0.2-0.2,0.5-0.4,0.9-0.7C17.6,16.5,19.3,15.4,21.5,13.9z"/>
	</g>
</g>
</svg>
