<svg xmlns="http://www.w3.org/2000/svg" xmlns:xlink="http://www.w3.org/1999/xlink" width="180" height="48" viewBox="0 0 180 48">
    <defs>
        <path id="a" d="M176.789 0H180v45h-7.582L142.624 2.94h-2.32V45h-3.211V0h7.583l29.704 42.06h2.409V0zm-76.75 42.265L118.381 0h6.154v45.218h-3.2V.584l-18.718 44.634h-8.532L81.02 5.125 67.955 45.218h-8.532L41.06 1.432v26.76c0 6.313-1.763 10.858-5.288 13.638C32.246 44.61 27.121 46 20.397 46c-6.725 0-11.807-1.39-15.242-4.17C1.718 39.05 0 34.505 0 28.192V0h3.2v28.192c0 5.27 1.45 9.064 4.354 11.38 2.903 2.316 7.184 3.474 12.843 3.474 5.657 0 9.983-1.142 12.976-3.43 2.99-2.288 4.488-6.095 4.488-11.424V0h5.798l18.342 42.265h3.466L79.065.869h3.91l13.598 41.396h3.466z"/>
    </defs>
    <use fill="#27D1E9" fill-rule="evenodd" transform="translate(0 1)" xlink:href="#a"/>
</svg>
 