<?xml version="1.0" encoding="utf-8"?>
<!-- Generator: Adobe Illustrator 16.0.0, SVG Export Plug-In . SVG Version: 6.00 Build 0)  -->
<!DOCTYPE svg PUBLIC "-//W3C//DTD SVG 1.1//EN" "http://www.w3.org/Graphics/SVG/1.1/DTD/svg11.dtd">
<svg version="1.1" id="圖層_1" xmlns="http://www.w3.org/2000/svg" xmlns:xlink="http://www.w3.org/1999/xlink" x="0px" y="0px"
	 width="600px" height="600px" viewBox="0 0 600 600" enable-background="new 0 0 600 600" xml:space="preserve">
<path fill="#FFFFFF" d="M232.623,200.517c19.356-13.424,42.837-21.328,68.191-21.328c11.367,0,22.31,1.673,32.729,4.623v22.927
	c-10.248-3.654-21.243-5.731-32.729-5.731c-18.878,0-36.478,5.454-51.456,14.723L232.623,200.517z M384.658,248.403
	c9.056,14.819,14.34,32.163,14.34,50.785c0,15.554-3.729,30.234-10.206,43.316l16.747,15.191
	c9.693-17.322,15.275-37.244,15.275-58.508c0-23.246-6.807-44.798-18.249-63.175l29.158-20.167l-76.363-23.47v76.3L384.658,248.403z
	 M268.088,414.544c10.419,2.961,21.359,4.646,32.728,4.646c31.258,0,59.531-12.146,80.859-31.748l35.37,31.748l14.68-15.811
	L184.583,179.188L169.903,194.7l35.307,32.301c-15.234,20.092-24.396,45.021-24.396,72.188c0,23.204,6.775,44.723,18.195,63.047
	l-29.104,20.22l76.24,23.479v-76.3l-29.232,20.222c-9.018-14.787-14.279-32.109-14.279-50.668c0-21.488,7.01-41.293,18.775-57.454
	l144.141,131.026c-17.279,15.277-39.907,24.609-64.73,24.609c-11.483,0-22.479-2.088-32.728-5.731v22.905H268.088z"/>
<path fill="#FFFFFF" d="M475,548.936v-500C475,21.324,453.633,0,426.045,0h-250C148.445,0,125,21.323,125,48.936v500
	C125,576.524,148.445,600,176.045,600h250C453.633,600,475,576.523,475,548.936z M263.545,53c-6.896,0-12.5-5.591-12.5-12.5
	c0-6.885,5.604-12.5,12.5-12.5h75c6.885,0,12.5,5.615,12.5,12.5c0,6.909-5.615,12.5-12.5,12.5H263.545z M148,517V82h305v435H148z
	 M276.057,557.773c0-13.818,11.17-25,25-25c13.795,0,24.978,11.182,24.978,25c0,13.817-11.183,25-24.978,25
	C287.227,582.773,276.057,571.592,276.057,557.773z"/>
</svg>
