<svg 
  xmlns="http://www.w3.org/2000/svg" 
  x="0" 
  y="0"
	width="100" 
  height="100" 
  viewBox="0 0 100 100"
>
  <g>
    <path fill="none" d="M67.924,34.522h7.727c1.064,0,1.933-0.866,1.933-1.932s-0.867-1.931-1.933-1.931h-7.727 c-1.064,0-1.934,0.865-1.934,1.931S66.859,34.522,67.924,34.522z"/>
    <path fill="none" d="M71.785,77.022c-2.135,0-3.861,1.733-3.861,3.864c0,2.132,1.727,3.863,3.861,3.863 c2.137,0,3.861-1.731,3.861-3.863C75.646,78.756,73.922,77.022,71.785,77.022z"/>
    <polygon points="19.318,92.5 50.227,92.5 50.227,80.91 29.359,80.91 "/>
    <polygon points="7.727,15.227 73.408,15.227 73.408,22.955 81.135,22.955 81.135,7.5 0,7.5 0,73.185 50.227,73.185 50.227,65.455 7.727,65.455 "/>
    <path d="M98.662,57.205c-1.371-1.929-2.613-3.203-4.627-3.203c-0.525,0-0.924,0.08-1.691,0.223l1.246,1.748 c0.313,0.437,0.209,1.048-0.227,1.363c-0.443,0.313-1.049,0.209-1.363-0.229l-1.113-1.559c-0.322-0.453-0.844-0.717-1.387-0.717 c-0.203,0-0.176-0.016-2.889,0.607l1.512,2.125c0.311,0.438,0.215,1.043-0.225,1.36c-0.439,0.312-1.045,0.213-1.361-0.231 l-1.314-1.838c-0.322-0.453-0.844-0.711-1.379-0.711c-0.246,0-0.199-0.017-2.986,0.69l1.604,2.241 c0.313,0.439,0.207,1.05-0.229,1.363c-0.436,0.314-1.049,0.211-1.358-0.229l-6.498-9.092c-0.854-1.203-2.522-1.479-3.726-0.623 c-1.198,0.852-1.479,2.523-0.623,3.723l9.595,13.447c-2.569-0.953-6.554-1.367-7.293,1.303c-0.438,1.588,0.834,2.852,2.812,3.516 c2.067,0.691,8.477,2.467,15.899,8L100,74.1V59.401C99.635,58.694,99.207,57.969,98.662,57.205z"/>
    <path d="M74.398,74.685c-1.111-0.373-2.033-0.896-2.752-1.525H58.264V38.293h27.045v15.065l0.783-0.18 c1.139-0.262,1.834-0.422,2.293-0.518l-0.041-0.055l0.828-0.152V31.432c0-1.229-0.486-2.408-1.357-3.281 c-0.871-0.869-2.049-1.356-3.276-1.356h-25.5c-1.229,0-2.406,0.487-3.276,1.356c-0.875,0.873-1.361,2.05-1.361,3.281v52.546 c0,1.229,0.486,2.405,1.358,3.276c0.871,0.873,2.05,1.358,3.277,1.358h25.5c1.229,0,2.405-0.485,3.276-1.358 c0.871-0.871,1.357-2.047,1.357-3.276v-1.979c-6.289-4.572-11.764-6.345-14.135-7.104C74.797,74.813,74.584,74.746,74.398,74.685z M67.924,30.658h7.727c1.064,0,1.933,0.865,1.933,1.931s-0.867,1.932-1.933,1.932h-7.727c-1.064,0-1.934-0.866-1.934-1.932 C65.99,31.524,66.859,30.658,67.924,30.658z M71.785,84.75c-2.135,0-3.861-1.731-3.861-3.863c0-2.131,1.727-3.864,3.861-3.864 c2.137,0,3.861,1.733,3.861,3.864C75.646,83.019,73.922,84.75,71.785,84.75z"/>
  </g>
</svg>
