<svg xmlns="http://www.w3.org/2000/svg" xmlns:xlink="http://www.w3.org/1999/xlink" width="30" height="30" viewBox="0 0 30 30">
    <defs>
        <path id="a" d="M11.717 21.305l2.013-6.368 3.605 6.368h-5.618zm-1.57 4.917l1.265-3.98h5.104l-6.368 3.98zm-.841-.445L8.18 22.242h2.248l-1.123 3.535zm-7.212-3.535h5.104l1.264 3.98-6.368-3.98zm2.786-7.305l2.014 6.368h-5.62l3.606-6.368zm-1.451-4.519l1.053 3.302-2.903 5.127 1.85-8.429zm5.408-8.522V6.04l-3.723 6.556-1.24-3.934 4.963-6.766zm.469 5.221l3.792 6.72-2.365 7.468H7.877l-2.365-7.468 3.794-6.72zm.467-5.22l4.964 6.79-1.241 3.932L9.773 6.04V1.896zm7.259 16.95l-2.904-5.127 1.054-3.302 1.85 8.429zm1.568 2.81L15.72 8.52c0-.046-.023-.069-.047-.116 0 0 0-.024-.023-.024 0-.023-.023-.046-.023-.046L9.68.187A.487.487 0 0 0 9.306 0a.49.49 0 0 0-.376.187L2.983 8.312a.472.472 0 0 0-.093.186L.01 21.657c0 .046-.023.094 0 .14 0 .07.024.117.07.187.048.07.094.117.165.164l8.803 5.55c.07.046.164.07.258.07a.533.533 0 0 0 .257-.07l8.827-5.526a.422.422 0 0 0 .164-.188c.023-.023.023-.047.023-.093a.227.227 0 0 0 .023-.211v-.023z"/>
    </defs>
    <use fill="#00BCD1" fill-rule="evenodd" transform="translate(6 1)" xlink:href="#a"/>
</svg>
