<svg enable-background="new 0 0 180 48" viewBox="0 0 180 48" xmlns="http://www.w3.org/2000/svg"><g fill="#fff"><path d="m22.8 41.4c-11 2.6-19.8-3-18.5-13.8s11.3-17.5 11.3-17.5-6.5 1.8-12 11c-5.5 9.3-3.4 17.9.9 21.9 4.4 4.2 16.2 8.3 27.3.3 10.7-7.7 13.5-18.6 13.5-18.6s-7 13.1-22.5 16.7z"/><path d="m35.1 3.5c10.9 3.1 4.4 12.5 0 15.6-.6.4-1.2.8-1.7 1.2l-12.1-11.3-9.9 26.8s17-.4 29.7-12.5c13-12.5 4-19.8-.8-21.8-7.5-3.1-21.9-.6-27.3 4.4 0 0 11.2-5.5 22.1-2.4zm-15.2 23.5 3-8.7 5.6 5.3c-2 1.1-4.6 2.2-8.6 3.4z"/><path d="m59.7 5.9 6.2 13.3h-2.2l-2-4.3h-5.7l-2.1 4.3h-1.1l6.3-13.3zm-3.3 8h4.8l-2.4-5.1zm10.9-4.8 3.2 7.3 3.2-7.3 3.2 7.3 2.8-7.3h1l-4.1 10.1h-.7l-2.9-6.5-2.8 6.5h-.6l-4.5-10.1zm18.8 10.2c-.7 0-1.3-.1-1.9-.4-.6-.2-1.1-.6-1.6-1s-.8-1-1.1-1.5c-.3-.6-.4-1.2-.4-1.9 0-.8.1-1.5.3-2.2s.6-1.3 1-1.8 1-.9 1.6-1.2 1.3-.4 2-.4 1.3.1 1.8.3c.6.2 1 .6 1.4.9.4.4.7.8.9 1.4.2.5.3 1 .3 1.6h-7.5c0 .7.1 1.3.2 1.9.2.6.4 1.1.7 1.5s.7.7 1.1 1c.4.2.9.4 1.4.4.4 0 .9-.1 1.3-.2s.7-.3 1.1-.6c.3-.2.6-.5.8-.8s.4-.6.5-.9l.6.2c-.2.5-.4 1-.7 1.4-.3.5-.7.9-1.1 1.2s-.9.6-1.4.8c-.2.3-.8.3-1.3.3zm2-6.9c0-.4-.1-.7-.2-1s-.3-.6-.6-.9c-.2-.2-.5-.4-.8-.6-.3-.1-.7-.2-1-.2s-.6.1-.9.2-.5.3-.7.6-.4.5-.5.9c-.2.3-.2.7-.2 1zm7.9 6.3c.3 0 .5 0 .7-.1s.4-.2.6-.3c.2-.2.3-.3.4-.5s.2-.4.2-.6c0-.3-.1-.6-.2-.8-.2-.2-.4-.4-.6-.6s-.6-.3-.9-.5-.7-.3-1-.5-.6-.3-1-.5c-.3-.2-.6-.4-.9-.6-.2-.2-.5-.5-.6-.8-.2-.3-.2-.7-.2-1.1s.1-.8.2-1.1c.2-.3.4-.6.7-.9.3-.2.7-.4 1.1-.6.5-.2.9-.3 1.5-.3.3 0 .7 0 .9.1.3.1.6.1.9.3.3.1.6.3.8.6.3.2.6.6.9 1l-.7.6c-.4-.6-.8-1.1-1.3-1.4-.4-.3-1-.5-1.5-.5-.3 0-.6 0-.8.1s-.4.1-.6.3c-.2.1-.3.3-.4.4-.2.1-.2.3-.2.5 0 .3.1.6.2.8.2.2.4.4.7.6s.6.3.9.5.7.3 1.1.5.7.3 1.1.5c.3.2.7.4.9.6.3.2.5.5.7.8s.2.7.2 1.1-.1.8-.2 1.2c-.2.4-.4.7-.7 1s-.7.5-1.2.6c-.6.2-1.1.3-1.7.2-.3 0-.6 0-.9-.1s-.6-.1-.9-.3c-.3-.1-.7-.3-1-.6s-.7-.6-.9-1l.8-.7c.2.3.5.6.7.9.2.2.5.4.7.6s.5.3.7.3c.3.2.5.3.8.3zm10.8.6c-.8 0-1.5-.1-2.1-.4s-1.2-.6-1.7-1.1-.8-1-1.1-1.6-.4-1.3-.4-2 .1-1.4.4-2.1c.3-.6.6-1.2 1.1-1.7s1.1-.9 1.7-1.1c.7-.3 1.4-.4 2.1-.4s1.5.1 2.1.4c.6.2 1.2.6 1.7 1s.8 1 1.1 1.6.4 1.2.4 1.9c0 .8-.1 1.5-.4 2.1s-.6 1.2-1.1 1.7-1.1.9-1.7 1.2c-.6.4-1.3.5-2.1.5zm.4-.7c.4 0 .8-.1 1.1-.3s.6-.5.8-.8.4-.7.6-1.2c.1-.5.2-.9.2-1.4 0-.7-.1-1.4-.2-2s-.3-1.1-.6-1.7c-.3-.5-.7-.8-1.1-1.1-.5-.3-1-.4-1.7-.4-.3 0-.6.1-1 .3-.3.2-.6.5-.8.8s-.4.7-.6 1.2-.2.9-.2 1.4c0 .7.1 1.4.2 2.1.2.6.4 1.2.7 1.7s.7.9 1.1 1.1.9.3 1.5.3zm6.8-9.5h2v1.9c.2-.3.6-.6.9-.8s.7-.5 1-.7.7-.3 1-.5c.3-.1.7-.2 1-.2s.6.1.9.2.6.2.8.4.5.4.7.7c.2.2.3.5.4.8.2-.3.4-.6.7-.8s.6-.5 1-.7.7-.3 1.1-.5c.4-.1.8-.2 1.2-.2s.7.1 1.1.2c.3.2.6.4.9.7.2.3.5.6.6 1 .2.4.2.8.2 1.2v7.2h-2v-6.8c0-.3-.1-.5-.2-.8-.1-.2-.2-.5-.4-.6-.2-.2-.4-.3-.6-.5-.2-.1-.4-.2-.7-.2s-.6 0-.8.1c-.3.1-.5.2-.8.3s-.5.3-.7.5-.4.3-.5.6v7.4h-2v-6.8c0-.3-.1-.5-.2-.8-.1-.2-.2-.5-.4-.6-.2-.2-.4-.3-.6-.5-.2-.1-.5-.2-.7-.2s-.5 0-.8.1-.5.2-.8.3-.5.3-.7.5-.4.3-.6.6v7.4h-2zm22.1 10.2c-.7 0-1.3-.1-1.9-.4-.6-.2-1.1-.6-1.6-1s-.8-1-1.1-1.5c-.3-.6-.4-1.2-.4-1.9 0-.8.1-1.5.3-2.2s.6-1.3 1-1.8 1-.9 1.6-1.2 1.3-.4 2-.4c.6 0 1.3.1 1.8.3.6.2 1 .6 1.4.9.4.4.7.8.9 1.4.2.5.3 1 .3 1.6h-7.5c0 .7.1 1.3.2 1.9.2.6.4 1.1.7 1.5s.7.7 1.1 1c.4.2.9.4 1.4.4.4 0 .9-.1 1.3-.2s.7-.3 1.1-.6c.3-.2.6-.5.8-.8s.4-.6.5-.9l.6.2c-.2.5-.4 1-.7 1.4-.3.5-.7.9-1.1 1.2s-.9.6-1.4.8c-.2.2-.7.4-1.3.3zm2.1-6.9c0-.4-.1-.7-.2-1s-.3-.6-.6-.9c-.2-.2-.5-.4-.8-.6-.3-.1-.7-.2-1-.2s-.6.1-.9.2-.5.3-.7.6-.4.5-.5.9c-.2.3-.2.7-.2 1z"/><path d="m63.5 27.7v.8h-6.9v4.6h4.6v.9h-4.6v5.8h6.9v.8h-9.1v-13zm2 2.9h2v1.8c.6-.7 1.2-1.2 1.9-1.5.6-.3 1.3-.5 2-.5.3 0 .7.1 1 .2.3.2.6.4.8.6.2.3.4.6.6 1 .1.4.2.8.2 1.2v7.2h-2v-6.8c0-.7-.2-1.2-.4-1.5-.3-.3-.7-.5-1.1-.5-.2 0-.4 0-.7.1-.2.1-.5.2-.7.3-.3.1-.5.3-.7.5s-.5.4-.7.6v7.4h-2c-.2-.1-.2-10.1-.2-10.1zm16.1 8.8c-.3.5-.6.8-1.1 1.1-.4.3-1 .4-1.6.4-.3 0-.6-.1-.9-.2-.2-.1-.5-.3-.6-.5-.2-.2-.3-.5-.4-.7-.1-.3-.1-.6-.1-1v-7.1h-1.7v-.4c.6 0 1-.1 1.4-.3s.7-.5.9-.8.4-.7.6-1.2c.1-.5.2-1 .3-1.4h.6v3.4h2.3v.8h-2.3v7.1c0 .3.1.6.3.8s.5.3.8.3c.2 0 .4-.1.6-.2s.3-.2.5-.4zm5.7 1.5c-.7 0-1.3-.1-1.9-.4-.6-.2-1.1-.6-1.6-1s-.8-1-1.1-1.5c-.3-.6-.4-1.2-.4-1.9 0-.8.1-1.5.3-2.2s.6-1.3 1-1.8 1-.9 1.6-1.2 1.3-.4 2-.4 1.3.1 1.8.3c.6.2 1 .6 1.4.9.4.4.7.8.9 1.4.2.5.3 1 .3 1.6h-7.5c0 .7.1 1.3.2 1.9.2.6.4 1.1.7 1.5s.7.7 1.1 1c.4.2.9.4 1.4.4.4 0 .9-.1 1.3-.2s.7-.3 1.1-.6c.3-.2.6-.5.8-.8s.4-.6.5-.9l.6.2c-.2.5-.4 1-.7 1.4-.3.5-.7.9-1.1 1.2s-.9.6-1.4.8c-.2.1-.8.3-1.3.3zm2-7c0-.4-.1-.7-.2-1s-.3-.6-.6-.9c-.2-.2-.5-.4-.8-.6-.3-.1-.7-.2-1-.2s-.6.1-.9.2-.5.3-.7.6-.4.5-.5.9c-.2.3-.2.7-.2 1zm4.6-3.3h2v1.9c.2-.3.4-.6.6-.8s.5-.5.7-.7.5-.3.7-.5c.2-.1.5-.2.8-.2.2 0 .4 0 .6.1s.3.2.5.3.2.2.3.4c.1.1.1.3.1.5 0 .3-.1.6-.3.7-.2.2-.5.3-.8.2-.2 0-.4 0-.5-.1s-.2-.1-.4-.2c-.1-.1-.2-.1-.3-.2s-.2-.1-.4-.1c-.3 0-.5.2-.8.4-.3.3-.6.7-.8 1.1v6.9h-2zm13.3 8.8c-.3.5-.6.8-1.1 1.1-.4.3-1 .4-1.6.4-.3 0-.6-.1-.9-.2-.2-.1-.5-.3-.6-.5-.2-.2-.3-.5-.4-.7-.1-.3-.1-.6-.1-1v-7.1h-1.7v-.4c.6 0 1-.1 1.4-.3s.6-.5.9-.8c.2-.3.4-.7.6-1.2.1-.5.2-1 .3-1.4h.6v3.4h2.3v.8h-2.3v7.1c0 .3.1.6.3.8s.5.3.8.3c.2 0 .4-.1.6-.2s.3-.2.5-.4zm8.6 1.2h-2v-1.4c-.2.2-.5.4-.7.6s-.5.4-.7.5c-.3.2-.6.3-.9.4-.4.1-.7.2-1.1.2s-.7-.1-1.1-.2c-.3-.1-.6-.3-.8-.5s-.4-.5-.5-.8-.2-.6-.2-1 .1-.8.2-1.2c.2-.3.4-.6.7-.9s.7-.5 1.1-.7.8-.4 1.3-.6.9-.3 1.4-.4l1.4-.4v-.6c0-.5 0-.8-.1-1.1s-.2-.5-.4-.8c-.2-.2-.4-.3-.6-.4s-.5-.1-.8-.1-.6 0-.8.1-.4.2-.5.3-.2.3-.2.5-.1.4-.1.6v.5c0 .2-.1.3-.2.4s-.2.2-.3.3c-.2.1-.3.1-.5.1-.3 0-.6-.1-.7-.3-.2-.2-.3-.5-.3-.8s.1-.6.3-.9.5-.5.9-.7.8-.4 1.3-.5 1-.2 1.5-.2c.7 0 1.2.1 1.7.2.4.1.8.3 1.1.5s.5.5.6.8.2.7.2 1.1zm-2-5.8c-.4.1-.9.3-1.4.5s-.9.4-1.3.7c-.4.2-.7.6-1 .9-.2.3-.4.6-.4 1 0 .2 0 .5.1.7s.2.4.4.6.3.3.5.4.4.2.6.2.4 0 .7-.1c.2-.1.4-.1.6-.2s.4-.2.6-.3.4-.3.6-.4zm5.8-9.3c.2 0 .3 0 .4.1.2.1.3.1.4.2s.2.2.2.3c.1.2.1.5 0 .8-.1.1-.1.2-.2.3s-.2.2-.4.2c-.1.1-.3.1-.4.1s-.3 0-.4-.1-.3-.1-.4-.2-.2-.2-.2-.3c-.1-.2-.1-.5 0-.8.1-.1.2-.2.2-.3.1-.1.2-.2.4-.2.1-.1.2-.1.4-.1zm-1 5.5 1.4-.6h.6v10.2h-2zm4.4-.4h2v1.8c.6-.7 1.2-1.2 1.9-1.5s1.3-.5 2-.5c.3 0 .7.1 1 .2.3.2.6.4.8.6.2.3.4.6.6 1 .1.4.2.8.2 1.2v7.2h-2v-6.8c0-.7-.2-1.2-.4-1.5-.3-.3-.7-.5-1.1-.5-.2 0-.4 0-.7.1-.2.1-.5.2-.7.3-.3.1-.5.3-.7.5s-.5.4-.7.6v7.4h-2zm10.8 0h2v1.9c.2-.3.6-.6.9-.8s.6-.5 1-.7c.3-.2.7-.3 1-.5.3-.1.7-.2 1-.2s.6.1.9.2.6.2.8.4.5.4.7.7c.2.2.3.5.4.8.2-.3.4-.6.7-.8s.6-.5 1-.7.7-.3 1.1-.5c.4-.1.8-.2 1.2-.2s.7.1 1.1.2c.3.2.6.4.9.7.2.3.5.6.6 1 .2.4.2.8.2 1.2v7.1h-1.9v-6.8c0-.3-.1-.5-.2-.8-.1-.2-.2-.5-.4-.6-.2-.2-.4-.3-.6-.5-.2-.1-.4-.2-.7-.2s-.6 0-.8.1c-.3.1-.5.2-.8.3s-.5.3-.7.5-.4.3-.5.6v7.4h-2v-6.8c0-.3-.1-.5-.2-.8-.1-.2-.2-.5-.4-.6-.2-.2-.4-.3-.6-.5-.2-.1-.5-.2-.7-.2s-.5 0-.8.1-.5.2-.8.3-.5.3-.7.5-.4.3-.6.6v7.4h-2zm22.1 10.3c-.7 0-1.3-.1-1.9-.4-.6-.2-1.1-.6-1.6-1s-.8-1-1.1-1.5c-.3-.6-.4-1.2-.4-1.9 0-.8.1-1.5.3-2.2s.6-1.3 1-1.8 1-.9 1.6-1.2 1.3-.4 2-.4c.6 0 1.3.1 1.8.3.6.2 1 .6 1.4.9.4.4.7.8.9 1.4.2.5.3 1 .3 1.6h-7.5c0 .7.1 1.3.2 1.9.2.6.4 1.1.7 1.5s.7.7 1.1 1c.4.2.9.4 1.4.4.4 0 .9-.1 1.3-.2s.7-.3 1.1-.6c.3-.2.6-.5.8-.8s.4-.6.5-.9l.6.2c-.2.5-.4 1-.7 1.4-.3.5-.7.9-1.1 1.2s-.9.6-1.4.8c-.2.1-.7.3-1.3.3zm2-7c0-.4-.1-.7-.2-1s-.3-.6-.6-.9c-.2-.2-.5-.4-.8-.6-.3-.1-.7-.2-1-.2s-.6.1-.9.2-.5.3-.7.6-.4.5-.5.9c-.2.3-.2.7-.2 1zm4.7-3.3h2v1.8c.6-.7 1.2-1.2 1.9-1.5.6-.3 1.3-.5 2-.5.3 0 .7.1 1 .2.3.2.6.4.8.6.2.3.4.6.6 1 .1.4.2.8.2 1.2v7.2h-2v-6.8c0-.7-.2-1.2-.4-1.5-.3-.3-.7-.5-1.1-.5-.2 0-.4 0-.7.1-.2.1-.5.2-.7.3-.3.1-.5.3-.7.5s-.5.4-.7.6v7.4h-2v-10.1zm16.1 8.8c-.3.5-.6.8-1.1 1.1-.4.3-1 .4-1.6.4-.3 0-.6-.1-.9-.2-.2-.1-.5-.3-.6-.5-.2-.2-.3-.5-.4-.7-.1-.3-.1-.6-.1-1v-7.1h-1.7v-.4c.6 0 1-.1 1.4-.3s.6-.5.9-.8c.2-.3.4-.7.6-1.2.1-.5.2-1 .3-1.4h.6v3.4h2.3v.8h-2.4v7.1c0 .3.1.6.3.8s.5.3.8.3c.2 0 .4-.1.6-.2s.3-.2.5-.4z"/></g></svg>