<svg xmlns="http://www.w3.org/2000/svg" width="180" height="48" viewBox="0 0 180 48">
    <defs>
        <linearGradient id="a" x1="12.562%" x2="97.393%" y1="86.971%" y2="-10.392%">
            <stop offset="0%" stop-color="#ED9027"/>
            <stop offset="100%" stop-color="#DE2726"/>
        </linearGradient>
        <linearGradient id="b" x1="-26.252%" x2="79.624%" y1="108.388%" y2="4.594%">
            <stop offset="0%" stop-color="#ED9027"/>
            <stop offset="100%" stop-color="#DE2726"/>
        </linearGradient>
    </defs>
    <g fill="none" fill-rule="nonzero">
        <path fill="url(#a)" d="M22.83 41.415C11.83 44 3.042 38.4 4.302 27.631c1.26-10.77 11.277-17.539 11.277-17.539S9.065 11.846 3.564 21.138c-5.5 9.293-3.41 17.816.953 21.908 4.425 4.185 16.193 8.308 27.347.339 10.724-7.662 13.52-18.616 13.52-18.616S38.317 37.754 22.83 41.415z"/>
        <path fill="url(#b)" d="M35.121 3.538c10.909 3.139 4.425 12.493 0 15.631-.614.431-1.167.831-1.69 1.231L21.325 9.015 11.43 35.846s17.023-.37 29.652-12.492C54.08 10.862 45.108 3.6 40.253 1.538 32.786-1.63 18.375.923 12.998 5.908c.03 0 11.215-5.477 22.123-2.37zM19.85 27.046l3.042-8.677 5.562 5.323c-1.936 1.046-4.548 2.123-8.604 3.354z"/>
        <g fill="#202121">
            <path d="M59.69 5.878l6.152 13.254h-2.226l-2.01-4.326h-5.595l-2.072 4.326h-1.113l6.307-13.254h.557zm-3.278 8.069h4.824l-2.381-5.124-2.443 5.124zM67.295 9.13l3.185 7.302 3.153-7.302 3.185 7.302L79.63 9.13h.959l-4.112 10.125h-.68l-2.814-6.536-2.844 6.536h-.619L65.101 9.13zM86.124 19.347a4.96 4.96 0 0 1-1.917-.369 4.863 4.863 0 0 1-1.577-1.043 4.396 4.396 0 0 1-1.051-1.534 4.856 4.856 0 0 1-.371-1.902c0-.798.124-1.534.34-2.24.247-.675.557-1.258.99-1.78.432-.49.958-.889 1.576-1.165a4.955 4.955 0 0 1 2.04-.43c.65 0 1.268.123 1.825.338.556.245 1.02.552 1.422.92.402.4.711.829.928 1.35.216.522.34 1.043.34 1.596h-7.544c0 .675.093 1.288.247 1.871.186.583.433 1.074.742 1.473.31.43.68.736 1.113.982a2.89 2.89 0 0 0 1.422.368c.433 0 .866-.061 1.268-.215a5.094 5.094 0 0 0 1.082-.552c.34-.246.618-.491.835-.798.216-.307.402-.583.495-.92l.556.245a5.136 5.136 0 0 1-.68 1.442c-.31.46-.68.86-1.113 1.197a4.98 4.98 0 0 1-1.422.797c-.495.277-1.02.369-1.546.369zm2.01-6.996c0-.368-.062-.736-.217-1.043a2.299 2.299 0 0 0-.557-.859 2.472 2.472 0 0 0-.834-.552 2.751 2.751 0 0 0-1.02-.215c-.31 0-.588.061-.866.215-.278.123-.526.337-.742.552a2.681 2.681 0 0 0-.526.86c-.154.337-.216.674-.247 1.042h5.008zM96.017 18.672c.279 0 .526-.031.742-.123.248-.092.433-.184.588-.338.154-.153.309-.306.402-.46.092-.184.154-.368.154-.552 0-.307-.062-.583-.216-.798a2.916 2.916 0 0 0-.619-.613c-.247-.184-.556-.338-.865-.491-.31-.154-.65-.307-.99-.46-.34-.154-.649-.338-.989-.522a4.522 4.522 0 0 1-.866-.644 3.229 3.229 0 0 1-.618-.829c-.155-.307-.216-.675-.216-1.104 0-.4.092-.767.247-1.105.185-.337.402-.644.711-.89.31-.245.68-.43 1.082-.583.433-.153.866-.214 1.391-.214.34 0 .65.03.928.061.31.061.587.123.866.276.278.123.556.307.834.552.279.246.557.553.866.952l-.742.644c-.371-.614-.804-1.074-1.298-1.38a2.74 2.74 0 0 0-1.515-.461c-.279 0-.557.03-.773.092a1.895 1.895 0 0 0-.619.276c-.154.123-.309.276-.402.43a1.002 1.002 0 0 0-.123.521c0 .307.092.553.247.798.155.215.402.43.68.614.279.184.588.337.928.49.34.154.71.307 1.082.46.37.154.711.338 1.082.522.34.184.65.4.927.645.279.245.495.521.68.828.155.307.248.675.248 1.105 0 .43-.093.828-.247 1.196-.155.368-.402.675-.711.951-.31.276-.712.491-1.206.645a5.672 5.672 0 0 1-1.7.245c-.31 0-.588-.03-.897-.061-.31-.062-.619-.123-.928-.276a4.488 4.488 0 0 1-.958-.553 5.492 5.492 0 0 1-.928-.95l.804-.737c.247.337.464.644.711.89.217.245.464.43.68.582.217.154.464.277.712.338.278-.03.525.03.834.03zM106.776 19.347c-.773 0-1.484-.123-2.133-.4a5.788 5.788 0 0 1-1.7-1.104c-.495-.46-.835-1.012-1.113-1.626a4.754 4.754 0 0 1-.402-1.963c0-.737.123-1.442.402-2.087a5.736 5.736 0 0 1 1.113-1.687c.463-.491 1.05-.86 1.7-1.135.65-.277 1.36-.43 2.133-.43.773 0 1.484.123 2.134.368.649.246 1.205.614 1.7 1.043.495.43.835.951 1.113 1.565.278.583.402 1.227.402 1.933 0 .767-.124 1.473-.402 2.148a5.656 5.656 0 0 1-1.113 1.749c-.464.49-1.051.89-1.7 1.196-.65.276-1.36.43-2.134.43zm.402-.737c.402 0 .773-.092 1.082-.307.34-.214.619-.46.835-.797.248-.338.433-.737.557-1.197.123-.46.185-.92.185-1.442 0-.736-.062-1.411-.185-2.025a5.01 5.01 0 0 0-.619-1.657 3.185 3.185 0 0 0-1.113-1.104c-.463-.276-1.02-.399-1.67-.399-.34 0-.648.092-.989.276-.309.184-.587.46-.834.798-.248.337-.433.736-.588 1.166-.154.46-.216.92-.216 1.411 0 .736.062 1.411.216 2.056.155.644.371 1.196.68 1.657.31.46.65.859 1.083 1.135.525.276 1.02.43 1.576.43zM114.042 9.13h2.01V11c.247-.276.556-.552.865-.797.31-.246.65-.46.99-.675.34-.184.68-.338 1.02-.46.34-.123.68-.185.958-.185.31 0 .588.062.897.154.309.092.587.245.835.43.247.183.494.398.68.674.185.246.309.522.37.829.155-.307.403-.553.681-.829.278-.245.618-.49.958-.675a8.536 8.536 0 0 1 1.113-.46 3.91 3.91 0 0 1 1.175-.184c.371 0 .742.092 1.051.245.34.154.619.4.866.675.247.277.464.614.588.982.154.368.216.798.216 1.227v7.057h-2.01v-6.78a2.29 2.29 0 0 0-.154-.798 1.75 1.75 0 0 0-.402-.644 2.163 2.163 0 0 0-.588-.46c-.216-.123-.432-.154-.68-.154-.278 0-.556.03-.835.123a3.623 3.623 0 0 0-.803.306 3.513 3.513 0 0 0-.711.46 2.655 2.655 0 0 0-.495.553v7.425h-2.01v-6.78a2.29 2.29 0 0 0-.154-.798 1.75 1.75 0 0 0-.402-.645 2.163 2.163 0 0 0-.588-.46c-.216-.123-.463-.153-.68-.153-.247 0-.525.03-.773.122a8.613 8.613 0 0 0-.804.307 3.513 3.513 0 0 0-.71.46c-.217.184-.403.338-.557.553v7.425h-1.917V9.13zM136.148 19.347a4.96 4.96 0 0 1-1.917-.369 4.863 4.863 0 0 1-1.577-1.043 4.396 4.396 0 0 1-1.051-1.534 4.856 4.856 0 0 1-.371-1.902c0-.798.123-1.534.34-2.24.247-.675.556-1.258.99-1.78.432-.49.958-.889 1.576-1.165a4.955 4.955 0 0 1 2.04-.43c.65 0 1.268.123 1.825.338.556.245 1.02.552 1.422.92.402.4.711.829.927 1.35.217.522.34 1.043.34 1.596h-7.512c0 .675.092 1.288.247 1.871.185.583.433 1.074.742 1.473.31.43.68.736 1.113.982a2.89 2.89 0 0 0 1.422.368c.433 0 .866-.061 1.268-.215a5.094 5.094 0 0 0 1.082-.552c.34-.246.618-.491.835-.798.216-.307.402-.583.494-.92l.557.245a5.136 5.136 0 0 1-.68 1.442c-.31.46-.68.86-1.113 1.197a4.98 4.98 0 0 1-1.423.797 3.298 3.298 0 0 1-1.576.369zm2.01-6.996c0-.368-.063-.736-.217-1.043a2.299 2.299 0 0 0-.557-.859 2.472 2.472 0 0 0-.834-.552 2.751 2.751 0 0 0-1.02-.215c-.31 0-.588.061-.866.215-.279.123-.526.337-.742.552a2.681 2.681 0 0 0-.526.86c-.155.337-.216.674-.247 1.042h5.008z"/>
            <g>
                <path d="M63.523 27.692v.828H56.63v4.633h4.607v.829h-4.607v5.83h6.894v.827h-9.09V27.661h9.09zM65.502 30.637h2.01v1.841c.618-.675 1.236-1.196 1.886-1.534.649-.337 1.33-.49 2.01-.49.34 0 .68.091.989.245.309.153.587.368.803.644.217.276.402.583.557.951.124.368.185.767.185 1.166v7.18h-2.01v-6.842c0-.675-.154-1.166-.432-1.504-.31-.337-.68-.49-1.144-.49-.216 0-.433.03-.68.091a3.4 3.4 0 0 0-.711.276 4.88 4.88 0 0 0-.742.46 11.88 11.88 0 0 0-.711.584v7.424h-2.01V30.637zM81.61 39.382c-.278.46-.618.828-1.051 1.104-.433.276-.99.399-1.639.399-.34 0-.618-.061-.896-.184-.248-.123-.464-.276-.619-.491a2.75 2.75 0 0 1-.37-.736c-.094-.277-.124-.614-.124-.952v-7.056h-1.732v-.491c.557 0 1.02-.092 1.391-.307s.65-.46.897-.828c.216-.338.402-.737.557-1.197.123-.46.247-.951.34-1.442h.587v3.406h2.257v.828h-2.257v7.057c0 .307.093.552.31.767.216.215.463.307.772.307.217 0 .433-.062.618-.154.186-.122.34-.245.464-.399l.495.369zM87.268 40.854a4.96 4.96 0 0 1-1.917-.368 4.863 4.863 0 0 1-1.577-1.043 4.396 4.396 0 0 1-1.051-1.534 4.856 4.856 0 0 1-.371-1.902c0-.798.124-1.534.34-2.24.247-.675.557-1.258.99-1.78.432-.49.958-.89 1.576-1.166a4.955 4.955 0 0 1 2.04-.43c.65 0 1.268.124 1.825.338.556.215 1.02.553 1.422.92.402.4.711.83.927 1.35.217.522.34 1.044.34 1.596H84.3c0 .675.092 1.289.247 1.872.186.583.433 1.074.742 1.473.31.43.68.736 1.113.981a2.89 2.89 0 0 0 1.422.369c.433 0 .866-.062 1.268-.215a5.094 5.094 0 0 0 1.082-.553c.34-.214.618-.49.835-.797.216-.307.402-.583.494-.92l.557.245a5.136 5.136 0 0 1-.68 1.442c-.31.46-.68.859-1.113 1.196a4.98 4.98 0 0 1-1.423.798 3.298 3.298 0 0 1-1.576.368zm2.01-6.995c0-.368-.062-.736-.217-1.043a2.299 2.299 0 0 0-.557-.86 2.472 2.472 0 0 0-.834-.552 2.751 2.751 0 0 0-1.02-.214c-.31 0-.588.061-.866.214-.279.123-.526.338-.742.553a2.681 2.681 0 0 0-.526.859c-.154.337-.216.675-.247 1.043h5.008zM93.915 30.637h1.979v1.903a5.25 5.25 0 0 1 .649-.798c.216-.246.464-.46.71-.675a4.88 4.88 0 0 1 .743-.46c.247-.123.526-.184.804-.184.216 0 .433.03.618.092.186.061.34.153.495.276.154.123.247.245.34.368a.86.86 0 0 1 .124.46c0 .338-.093.583-.31.737a1.415 1.415 0 0 1-.834.245c-.217 0-.402-.03-.526-.061-.124-.062-.247-.092-.371-.154-.124-.061-.216-.092-.34-.153-.124-.062-.247-.062-.433-.062-.278 0-.525.154-.804.43a8.624 8.624 0 0 0-.834 1.105v6.933h-1.98V30.637h-.03zM107.21 39.382c-.279.46-.62.828-1.052 1.104-.433.276-.99.399-1.639.399-.34 0-.618-.061-.896-.184-.247-.123-.464-.276-.618-.491a2.75 2.75 0 0 1-.371-.736 4.435 4.435 0 0 1-.124-.952v-7.056h-1.732v-.491c.557 0 1.02-.092 1.392-.307.37-.215.649-.46.896-.828.248-.338.402-.737.557-1.197.124-.46.247-.951.34-1.442h.587v3.406h2.257v.828h-2.257v7.057c0 .307.093.552.31.767.216.215.463.307.772.307.217 0 .433-.062.619-.154.185-.092.34-.245.464-.399l.494.369zM115.835 40.64h-2.01v-1.381c-.247.184-.463.368-.68.552a4.528 4.528 0 0 1-.742.522 3.914 3.914 0 0 1-.896.368 4.06 4.06 0 0 1-1.113.153 3.08 3.08 0 0 1-1.082-.184 2.42 2.42 0 0 1-.804-.521 2.398 2.398 0 0 1-.526-.798 2.64 2.64 0 0 1-.185-.982c0-.43.092-.828.247-1.166.186-.337.402-.644.711-.92.31-.276.65-.522 1.051-.737.402-.214.804-.398 1.268-.583.464-.153.896-.306 1.391-.43l1.391-.367v-.614c0-.46-.03-.828-.123-1.135a2.023 2.023 0 0 0-.402-.767 1.494 1.494 0 0 0-.619-.43c-.247-.092-.494-.122-.803-.122-.34 0-.619.03-.835.122a1.546 1.546 0 0 0-.495.338.932.932 0 0 0-.247.49c-.031.185-.062.369-.062.553 0 .184 0 .337-.03.49-.032.154-.094.308-.155.43-.062.123-.186.215-.31.307a1.06 1.06 0 0 1-.494.123.944.944 0 0 1-.742-.338c-.186-.214-.279-.49-.279-.828 0-.337.124-.644.34-.92.217-.276.526-.522.897-.737.371-.214.804-.368 1.299-.49a6.46 6.46 0 0 1 1.545-.185c.65 0 1.237.062 1.67.184a3.12 3.12 0 0 1 1.113.522c.278.245.495.522.618.828.124.338.186.706.186 1.105v7.547h-.093zm-2.01-5.83c-.432.123-.896.307-1.36.49-.464.216-.896.43-1.298.676-.402.245-.711.552-.99.859-.247.307-.37.644-.37.982 0 .245.03.46.123.675.093.215.216.399.371.583.155.153.31.307.526.399.185.092.401.153.618.153.216 0 .433-.03.65-.092.216-.061.401-.123.587-.245.185-.093.37-.215.587-.338.186-.123.371-.276.587-.43V34.81h-.03zM119.576 25.544c.155 0 .31.031.433.062.155.061.278.122.37.214.094.092.186.185.248.307a.844.844 0 0 1 0 .767 1.203 1.203 0 0 1-.247.307 1.07 1.07 0 0 1-.371.215 1.098 1.098 0 0 1-.433.092.994.994 0 0 1-.433-.092 1.464 1.464 0 0 1-.37-.215c-.094-.092-.186-.184-.248-.307a.844.844 0 0 1 0-.767c.062-.122.154-.215.247-.307a1.07 1.07 0 0 1 .371-.214c.124-.062.279-.062.433-.062zm-.958 5.462l1.39-.583h.588v10.216h-1.978v-9.633zM123.039 30.637h2.01v1.841c.618-.675 1.236-1.196 1.885-1.534.65-.337 1.33-.49 2.01-.49.34 0 .68.091.99.245.308.153.587.368.803.644.247.276.402.583.557.951.123.368.185.767.185 1.166v7.18h-2.01v-6.842c0-.675-.154-1.166-.432-1.504-.31-.337-.68-.49-1.144-.49-.217 0-.433.03-.68.091a3.4 3.4 0 0 0-.711.276 4.88 4.88 0 0 0-.742.46 11.88 11.88 0 0 0-.712.584v7.424h-2.01V30.637zM133.767 30.637h2.01v1.872c.247-.276.556-.552.865-.798.31-.245.65-.46.99-.675.34-.184.68-.337 1.02-.46.34-.123.68-.184.958-.184.31 0 .588.061.897.153.31.092.587.246.835.43.247.184.494.399.68.675.185.245.31.521.37.828.155-.307.403-.552.681-.828.278-.246.618-.491.959-.675a8.536 8.536 0 0 1 1.113-.46 3.91 3.91 0 0 1 1.174-.184c.371 0 .742.092 1.052.245.34.153.618.399.865.675.248.276.464.614.588.982.154.368.216.798.216 1.227v7.057h-1.917v-6.78a2.29 2.29 0 0 0-.154-.799 1.75 1.75 0 0 0-.402-.644 2.163 2.163 0 0 0-.588-.46c-.216-.123-.433-.153-.68-.153-.278 0-.556.03-.835.122a3.623 3.623 0 0 0-.803.307 3.513 3.513 0 0 0-.712.46 2.655 2.655 0 0 0-.494.553v7.424h-2.01v-6.78a2.29 2.29 0 0 0-.154-.798 2.278 2.278 0 0 0-.402-.644 2.163 2.163 0 0 0-.588-.46c-.216-.123-.464-.154-.68-.154-.247 0-.526.03-.773.123a8.613 8.613 0 0 0-.804.307 3.513 3.513 0 0 0-.71.46c-.217.184-.403.337-.557.552v7.425h-2.01v-9.94zM155.904 40.854a4.96 4.96 0 0 1-1.917-.368 4.863 4.863 0 0 1-1.577-1.043 4.396 4.396 0 0 1-1.051-1.534 4.856 4.856 0 0 1-.371-1.902c0-.798.124-1.534.34-2.24.247-.675.556-1.258.99-1.78.432-.521.958-.89 1.576-1.166a4.955 4.955 0 0 1 2.04-.43c.65 0 1.268.124 1.825.338.556.215 1.02.553 1.422.92.402.4.711.83.927 1.35.217.522.34 1.044.34 1.596h-7.512c0 .675.092 1.289.247 1.872.185.583.433 1.074.742 1.473.31.43.68.736 1.113.981a2.89 2.89 0 0 0 1.422.369c.433 0 .866-.062 1.268-.215a5.094 5.094 0 0 0 1.082-.553c.34-.214.618-.49.835-.797.216-.307.402-.583.494-.92l.557.245a5.136 5.136 0 0 1-.68 1.442c-.31.46-.68.859-1.113 1.196a4.98 4.98 0 0 1-1.423.798 3.298 3.298 0 0 1-1.576.368zm2.01-6.995c0-.368-.063-.736-.217-1.043a2.299 2.299 0 0 0-.557-.86 2.472 2.472 0 0 0-.834-.552 2.751 2.751 0 0 0-1.02-.214c-.31 0-.588.061-.866.214-.279.123-.526.338-.742.553a2.681 2.681 0 0 0-.526.859c-.155.337-.216.675-.247 1.043h5.008zM162.55 30.637h2.01v1.841c.619-.675 1.237-1.196 1.886-1.534.65-.337 1.33-.49 2.01-.49.34 0 .68.091.99.245.309.153.587.368.803.644.248.276.402.583.557.951.123.368.185.767.185 1.166v7.18h-2.01v-6.842c0-.675-.154-1.166-.432-1.504-.31-.337-.68-.49-1.144-.49-.217 0-.433.03-.68.091a3.4 3.4 0 0 0-.711.276 4.88 4.88 0 0 0-.742.46 11.88 11.88 0 0 0-.712.584v7.424h-2.01V30.637zM178.659 39.382c-.279.46-.619.828-1.052 1.104-.432.276-.989.399-1.638.399-.34 0-.618-.061-.897-.184-.247-.123-.463-.276-.618-.491a2.75 2.75 0 0 1-.371-.736 4.435 4.435 0 0 1-.124-.952v-7.056h-1.731v-.491c.556 0 1.02-.092 1.391-.307s.65-.46.897-.828c.216-.338.402-.737.556-1.197.124-.46.248-.951.34-1.442H176v3.406h2.257v.828H176v7.057c0 .307.093.552.309.767.216.215.464.307.773.307.216 0 .433-.062.618-.154.186-.122.34-.245.464-.399l.495.369z"/>
            </g>
        </g>
    </g>
</svg>
