<svg xmlns="http://www.w3.org/2000/svg" xmlns:xlink="http://www.w3.org/1999/xlink" width="117" height="31" viewBox="0 0 117 31">
    <defs>
        <path id="a" d="M114.928 0H117v30.473h-4.892L92.887 1.991H91.39v28.482h-2.072V0h4.891l19.164 28.483h1.554V0zm-50.15 28.483L76.656 0h3.985v30.473h-2.072V.393l-12.12 30.08h-5.525l-8.46-27.019-8.46 27.02h-5.525L26.588.964V19c0 4.254-1.142 7.318-3.424 9.191C20.88 30.063 17.562 31 13.208 31c-4.355 0-7.646-.937-9.87-2.81C1.112 26.317 0 23.253 0 18.999V0h2.072v18.999c0 3.551.94 6.108 2.82 7.669 1.879 1.561 4.651 2.342 8.316 2.342 3.663 0 6.464-.77 8.402-2.313 1.937-1.541 2.906-4.107 2.906-7.698V0h3.755l11.876 28.483h2.245L51.197.585h2.532l8.805 27.898h2.245z"/>
    </defs>
    <use fill="#FEFEFE" fill-rule="evenodd" xlink:href="#a"/>
</svg>
